<svg id="visual" viewBox="0 0 1000 200" width="1000" height="200" xmlns="http://www.w3.org/2000/svg" xmlns:xlink="http://www.w3.org/1999/xlink" version="1.1"><rect x="0" y="0" width="1000" height="200" fill="#FFEC66"></rect><path d="M0 133L15.2 130C30.3 127 60.7 121 91 124C121.3 127 151.7 139 182 138.2C212.3 137.3 242.7 123.7 273 124.5C303.3 125.3 333.7 140.7 364 149.5C394.3 158.3 424.7 160.7 454.8 160.3C485 160 515 157 545.2 151.5C575.3 146 605.7 138 636 138.7C666.3 139.3 696.7 148.7 727 145C757.3 141.3 787.7 124.7 818 119.7C848.3 114.7 878.7 121.3 909 122.7C939.3 124 969.7 120 984.8 118L1000 116L1000 201L984.8 201C969.7 201 939.3 201 909 201C878.7 201 848.3 201 818 201C787.7 201 757.3 201 727 201C696.7 201 666.3 201 636 201C605.7 201 575.3 201 545.2 201C515 201 485 201 454.8 201C424.7 201 394.3 201 364 201C333.7 201 303.3 201 273 201C242.7 201 212.3 201 182 201C151.7 201 121.3 201 91 201C60.7 201 30.3 201 15.2 201L0 201Z" fill="#0066FF" stroke-linecap="round" stroke-linejoin="miter"></path></svg>